<?xml version="1.0" encoding="utf-8"?>
<!-- Generator: Adobe Illustrator 25.4.1, SVG Export Plug-In . SVG Version: 6.00 Build 0)  -->
<svg version="1.1" id="Layer_1" xmlns="http://www.w3.org/2000/svg" xmlns:xlink="http://www.w3.org/1999/xlink" x="0px" y="0px"
	 viewBox="0 0 1366 768" style="enable-background:new 0 0 1366 768;" xml:space="preserve">
<style type="text/css">
	.st0{font-family:'HelveticaNeueLTStd-Bd';}
	.st1{font-size:405.9654px;}
	.st2{font-size:109.2076px;}
</style>
<g>
	<path d="M358.2,587.3c-1.9-22.4-2.4-45.1-6.2-67.2c-2.2-12.9-8.1-25.8-15.1-36.9c-6.2-9.7-16.8-16.6-24.5-25.5
		c-13.3-15.4-27.6-23.7-50-23.8c-42.1-0.3-75.8-32.3-85.9-75c-9.4-39.9,8.9-81.9,45.2-103.1c4.7-2.7,9.6-5.1,12-6.4
		c0-22-2.2-42.5,0.4-62.4c9.5-74.3,77-125.8,149.5-115.5c75.3,10.7,126.7,80.3,113.7,155.5c-2.4,14-1.6,21.6,12.7,29.5
		c43.5,24,59.2,78.5,38.1,123.2c-21.7,45.8-73.7,66.6-121.5,48.5c-26.1-9.9-46.8,4.3-47.2,33.1c-0.4,33.1,0.4,66.3-0.4,99.4
		c-0.2,8.9-4.3,17.7-6.6,26.5C367.6,587.3,362.9,587.3,358.2,587.3z M365.7,353.3c3.6,9.2,6.8,17.5,10.1,25.7
		c3.3-42.7,3.8-83.6,2.6-124.3c-0.2-6.2-8.6-12.2-13.3-18.3c-4.1,5.7-11.7,11.3-11.8,17.1c-1,41.2-0.5,82.4-0.5,123.7
		c1.3,0.2,2.6,0.4,3.8,0.6C359.4,370.1,362.3,362.5,365.7,353.3z M350.6,472c0-26.2,0-51.1,0-75.9c-15.2,12.1-29,23.1-41.6,33.1
		C322.3,442.9,335.8,456.9,350.6,472z M494.5,328.6c-1.6-1.7-3.1-3.3-4.7-5c-29.2,29.4-58.3,58.9-87.4,88.3c1.3,1.4,2.7,2.8,4.1,4.2
		C435.8,387,465.1,357.8,494.5,328.6z M241.2,374.5c10.6,29.6,44.3,57.9,49.8,57.1C274.4,412.6,257.8,393.5,241.2,374.5z"/>
</g>
<text transform="matrix(0.7242 0 0 1 557.3281 446.8652)" class="st0 st1">Tree</text>
<text transform="matrix(0.7958 0 0 1 614.5977 544.1709)" class="st0 st2">Photography</text>
</svg>
