<svg xmlns="http://www.w3.org/2000/svg" viewBox="0 0 1035.23 526.72"><defs><style>.a,.b,.c{fill:#fff;}.b{font-size:191.2px;letter-spacing:0.04em;}.b,.c{font-family:MicrosoftSansSerif, Microsoft Sans Serif;}.c{font-size:66.61px;letter-spacing:0.04em;}</style></defs><path class="a" d="M442.53,119.28c9.74,4.2,19.92,7.62,29.14,12.76a93.74,93.74,0,0,1,46.9,99.07c-1.75,9.9-1.48,15.52,8.94,21.26,31.29,17.22,42.63,56.12,27.51,88.25-15.47,32.89-52.83,47.84-87.15,34.88-18.74-7.08-33.62,3.1-33.89,23.67-.32,23.76.27,47.54-.3,71.3-.15,6.37-3.08,12.67-4.73,19h-10.2c-1.33-5.88-4.54-12.05-3.7-17.61,5-33.07-5.72-58.58-32.36-79.17-9.75-7.53-17.88-12.58-30.79-12.93-42.73-1.16-72.9-42.26-63.37-83.83,5.64-24.56,21.59-39.95,43.67-50.23-9.78-42.89-1.34-79.74,34.21-106.63,11.39-8.62,25.75-13.32,38.76-19.8ZM430.67,340.11l3.22-.54c0-12.87.07-25.74,0-38.61-.12-17.46.13-35-.94-52.37-.23-3.68-5.46-7.05-8.39-10.57-3.16,3.26-9,6.45-9.06,9.78-.71,30.39-.41,60.79-.41,91.19l2.86.15c1.9-5.36,3.81-10.72,6.47-18.18C427,328.82,428.82,334.46,430.67,340.11Zm-17.13,67.42V352.27L384,375.77Zm98.72-103.07-56.51,58C462.56,361.36,509.74,314.62,512.26,304.46ZM335.33,337c1,14,27.81,39.71,40.92,38.2Z" transform="translate(-286.77 -119.28)"/><text class="b" transform="translate(275.37 238.4) scale(1 1.15)">Tree</text><text class="c" transform="translate(279.07 307.96) scale(1 1.15)">Photography</text></svg>