<?xml version="1.0" encoding="utf-8"?>
<!-- Generator: Adobe Illustrator 26.0.2, SVG Export Plug-In . SVG Version: 6.00 Build 0)  -->
<svg version="1.1" id="Layer_1" xmlns="http://www.w3.org/2000/svg" xmlns:xlink="http://www.w3.org/1999/xlink" x="0px" y="0px"
	 viewBox="0 0 1366 768" style="enable-background:new 0 0 1366 768;" xml:space="preserve">
<style type="text/css">
	.st0{fill:#7F176C;}
	.st1{fill:#FFFFFF;}
	.st2{font-family:'DINAlternate-Bold';}
	.st3{font-size:137px;}
</style>
<g>
	<path class="st0" d="M1098,478.6H278.2c-13.9,0-25.2-11.3-25.2-25.2V221.9c0-13.9,11.3-25.2,25.2-25.2H1098
		c13.9,0,25.2,11.3,25.2,25.2v231.6C1123.2,467.3,1111.9,478.6,1098,478.6z"/>
	<g>
		<g>
			<path class="st1" d="M329.5,389.2c6.3,2.3,10.7,6.8,15,11.7c3.8,4.3,8.2,8.2,12.8,11.6c5.1,3.8,10.4,7.6,16.1,10.1
				c15.5,6.9,31.7,11.5,48.8,11.2c24.7-0.4,47.9-6.6,67.8-21.7c17.5-13.3,30.2-30.5,37.2-51.6c1.3-3.9,2.3-8,3.6-11.9
				c3-9.2,9.2-11.8,17.8-7.6c0.7,0.3,1.4,0.8,2.1,0.9c5.8,0.6,8.3,3.4,7.5,9.1c-0.6,4.1-1.8,8.1-2.9,12.1c-0.2,0.9-1.1,2.1-1.9,2.3
				c-4.2,1-3.5,4.1-3.2,6.9c0.5,4.8-2,9.5-6.3,11.1c0.5,0.9,1.7,2.4,1.4,2.7c-1.5,2-3.2,3.8-5.1,5.4c-0.7,0.6-2.4-0.1-3,0.5
				c-1.1,0.9-2.2,2.4-2.4,3.7c-0.1,0.8,1.5,1.8,2.8,3.2c-2.6,3.3-5.5,6.9-8.4,10.5c-0.4-0.2-0.7-0.4-1.1-0.7
				c0.8-2.2,1.7-4.4,2.5-6.5c-0.2-0.1-0.4-0.3-0.6-0.4c-2.1,2.7-4.2,5.4-6.3,8.1c-0.3,0.4-0.8,0.8-0.8,1.1
				c1.6,9.3-6.4,10.8-11.6,14.5l0.2-0.1c-4.7,3.2-9.4,6.3-14.2,9.5c-0.8,0.5-1.5,1.1-2.3,1.5c-3.9,1.9-7.9,3.7-11.9,5.6
				c-16.8,8.4-34.8,11.2-53.2,12.5c-31,2.1-59.4-6.2-85.4-22.9c-20.2-13-36.5-30.1-48.1-51.2c-2.4-4.4-3.6-8.9,0-13.3
				c2.5-3.1,5.7-4,9.8-3.6c10.5,0.9,15.8,7.9,20,16.3c0.5,1-0.2,2.5-0.3,3.7l0,0.2c1.1,1.7,2.1,3.5,3.2,5.2l0.3,0L329.5,389.2z"/>
			<path class="st1" d="M313.8,306.3c-3.5,1-6.9,2.6-10.4,2.9c-3.9,0.4-6.5-2.4-8.2-5.7c-1.8-3.6-1.4-7.4,1.2-10.4
				c6.4-7.4,13-14.7,19.5-22c4.8-5.4,4.7-6.4-0.7-11.1c-6.8-6-13.6-12-20.3-18.1c-4.2-3.8-5.6-9.5-3.3-13.8c2.7-5,6.3-6.2,12.9-5
				c11.4,2,18,10.8,26.8,17.8c-1.5,0.2-2.3,0.3-3.1,0.4c-0.1,0.3-0.2,0.6-0.4,0.9c1.2,0.4,2.5,0.8,3.7,1.1c0.7,0.2,1.8-0.3,2.1,0.1
				c4,4.1,6.2,1,8.8-1.9c5.1-5.9,10.4-11.7,15.7-17.5c5.4-6,10.2-6.6,17.2-2.6c0.8,0.4,1.6,0.9,2.5,1.1c6.5,1.8,8.1,6.8,3.1,13.3
				c0.3-1.8,0.9-3,0.6-3.8c-0.3-0.8-1.4-1.2-3-2.4c-1.1,4.5-2,8.2-3,12.1c-3.3-2.3-4.9,0.7-7,3c-3.7,4.1-7.4,8.1-10.3,11.3
				c0.6,2.4,1,3.8,1.3,5.2c0.5,1.9,0.5,4.2,1.5,5.8c1.8,3,4.2,5.6,6,8c1.7,0.8,3.9,1,4.6,2.2c3.1,5,7.5,8.1,12.2,11.2
				c5.6,3.8,5.2,10-0.8,14c1-1.3,2.1-2.5,2.8-3.9c0.4-0.8,0.4-2,0.1-3c-0.1-0.5-1.5-1.2-1.8-1c-0.9,0.6-2,1.4-2.4,2.3
				c-3.1,9.7-11.1,12.1-19,5.3c-7.4-6.4-14.7-13-21.7-19.1c-5,3.2-9.8,6.3-14.5,9.3c-0.7,0.7-1.4,1.4-2,2.1
				c-3.6,3.9-7.2,7.8-10.8,11.7L313.8,306.3z"/>
			<path class="st1" d="M471.4,305.5c-3.6,1.2-7.1,2.9-10.8,3.4c-4.2,0.5-7.7-1.8-9.9-5.6c-2.2-3.8-1.6-7.6,1-10.8
				c5-6.2,10.4-12.1,15.7-18.1c1.6-1.9,3.1-3.8,4.8-5.6c2.9-3.1,2.7-5.7-0.7-8.5c-6.6-5.5-13.1-11.2-19.5-16.9
				c-2-1.8-4.1-3.8-5.6-6.1c-4.2-6.2,0-14.7,7.5-14.8c3.6-0.1,7.2,0.8,10.8,1.6c0.7,0.2,0.8,2.3,1.6,3.1c1.8,1.9,3.8,3.4,5.7,5.1
				l0.1,0.1c4.6,4.6,12.5,3.7,16.2,9.7c0.8,1.2,2.1,2,3.6,3.5c4.2-4.6,8.4-9.3,12.5-13.9c2.6-3,5-6.2,7.8-9.1
				c6.8-7.1,12.8-7.2,20-0.3c0.5-0.9,0.9-1.6,1.3-2.4c6.3,5.6,6.3,10.4-0.8,15.6c0.9-2,1.7-3.9,2.6-5.9c-0.7-0.4-0.4-0.3-1.1-0.7
				c-1.5,2-2.9,4-4.5,6c-1.8,2.3-3.7,4.5-5.5,6.8c-0.2,0.3-0.4,0.7-0.7,1c-1.4,2.1-2.8,4.2-4.3,6.2c-0.5,0.7-1.4,1.8-2.1,2.4
				c-2.5,2.4-5.2,4.7-7.6,7.2c-0.9,0.9-1.1,2.3-1.7,3.5c1.2,0.4,2.6,0.5,3.5,1.3c4,3.3,8,6.8,11.9,10.3c1.2,1.1,2.2,2.4,3.5,3.4
				c2.9,2.1,6,4,8.9,6.2c0.5,0.4,0.2,0.2,1.4,1.7c0.8,1,1.4,2.2,1.8,3.5c1.2,4.6,2,7.4-1.3,12.3c-0.8,1.1-1.9,2-3.1,2.5
				c-7.8,2.7-14.3,0.8-20.2-5.5c-5-5.4-10.9-9.9-16.6-14.6c-0.9-0.7-3.1-0.7-4.2,0c-1.6,1-2.7,2.8-4.1,4.3
				c-5.1,5.3-10.1,10.6-15.2,15.9c0.6-1.1,1.1-2.2,1.7-3.3c-0.8-0.5-0.5-0.4-1.3-0.9c-2.1,2.4-4.2,4.7-6.3,7.1
				c0.3,0.3,0.5,0.6,0.8,0.8C470,306.5,470.7,306,471.4,305.5z"/>
			<path class="st1" d="M523.6,242.8c0.2-0.4,0.4-0.7,0.7-1c1.4-0.3,2.8-0.7,4.2-1c0.2,0.4,0.3,0.7,0.5,1.1c-1.5,1.8-3,3.7-4.4,5.5
				c-0.6-0.4-1.1-0.7-1.7-1.1C523.1,245.1,523.3,243.9,523.6,242.8z"/>
			<path class="st1" d="M313.8,306.3l0.1-0.1c2.8-2.6,5.6-5.3,8.4-7.9l-0.1-0.2C323,303.2,319,307.1,313.8,306.3z"/>
			<path class="st1" d="M324.6,294.5c0.7-0.7,1.4-1.4,2-2.1c0.4,1,1.5,2.5,1.2,2.9c-1.4,1.8-2.6,4.5-5.7,2.9l0.1,0.2
				C323.1,297,323.9,295.7,324.6,294.5z"/>
			<polygon class="st1" points="329.5,389.2 329.4,388.9 329.2,388.9 329.4,389 			"/>
			<path class="st1" d="M326,383.7c0,0,0-0.2,0-0.2C325.9,383.5,326,383.7,326,383.7z"/>
			<path class="st1" d="M511.4,425.4c0,0-0.2,0.1-0.2,0.1C511.2,425.5,511.4,425.4,511.4,425.4z"/>
			<path class="st1" d="M472.1,232.5l-0.1-0.1C472,232.4,472.1,232.5,472.1,232.5z"/>
		</g>
	</g>
	<text transform="matrix(1 0 0 1 574 315.7041)" class="st1 st2 st3">Cece </text>
	<text transform="matrix(1 0 0 1 574 453.7041)" class="st1 st2 st3">Emmons</text>
</g>
</svg>
