<?xml version="1.0" standalone="no"?>
<!DOCTYPE svg PUBLIC "-//W3C//DTD SVG 20010904//EN"
 "http://www.w3.org/TR/2001/REC-SVG-20010904/DTD/svg10.dtd">
<svg version="1.0" xmlns="http://www.w3.org/2000/svg"
 width="1366.000000pt" height="1366.000000pt" viewBox="0 0 1366.000000 1366.000000"
 preserveAspectRatio="xMidYMid meet">
<metadata>
Created by potrace 1.14, written by Peter Selinger 2001-2017
</metadata>
<g transform="translate(0.000000,1366.000000) scale(0.100000,-0.100000)"
fill="#000000" stroke="none">
<path d="M2721 8694 c-80 -24 -130 -66 -167 -141 l-23 -48 0 -1205 c-1 -1264
-2 -1232 42 -1305 22 -37 83 -81 134 -98 31 -11 830 -13 4188 -12 l4150 1 40
22 c77 41 127 105 141 177 l5 31 93 0 c195 0 306 85 306 233 0 50 -28 113 -63
142 -30 25 -106 53 -212 80 -132 32 -126 26 -124 120 1 77 3 81 28 91 63 25
201 15 295 -21 16 -7 31 -9 34 -6 8 8 2 99 -7 108 -4 4 -18 10 -32 13 -92 19
-125 22 -215 20 l-102 -2 0 798 c0 841 0 834 -46 905 -38 57 -170 125 -195
100 -6 -6 -11 -7 -11 -2 0 12 -1039 13 -1057 2 -7 -5 -13 -5 -13 0 0 10 -931
10 -947 0 -7 -5 -13 -5 -13 0 0 10 -931 10 -947 0 -7 -5 -13 -5 -13 0 0 10
-931 10 -947 0 -7 -5 -13 -5 -13 0 0 10 -931 10 -947 0 -7 -5 -13 -5 -13 0 0
13 -3305 10 -3349 -3z m8584 -2231 c11 -4 25 -8 31 -9 78 -14 162 -56 165 -82
0 -4 2 -18 4 -32 5 -43 -32 -97 -72 -105 -10 -2 -18 -4 -18 -5 0 -11 -156 -16
-173 -6 -6 3 -10 62 -11 130 l-1 125 28 -5 c15 -3 36 -8 47 -11z"/>
</g>
</svg>
