<?xml version="1.0" encoding="utf-8"?>
<!-- Generator: Adobe Illustrator 25.4.1, SVG Export Plug-In . SVG Version: 6.00 Build 0)  -->
<svg version="1.1" id="Layer_1" xmlns="http://www.w3.org/2000/svg" xmlns:xlink="http://www.w3.org/1999/xlink" x="0px" y="0px"
	 viewBox="0 0 1366 768" style="enable-background:new 0 0 1366 768;" xml:space="preserve">
<style type="text/css">
	.st0{fill:#FFFFFF;}
	.st1{fill:none;}
	.st2{font-family:'MicrosoftSansSerif';}
	.st3{font-size:191.1997px;}
	.st4{letter-spacing:7;}
	.st5{font-size:66.6115px;}
	.st6{letter-spacing:2;}
</style>
<g>
	<path class="st0" d="M442.53,119.28c9.74,4.21,19.92,7.62,29.14,12.77c35.38,19.72,54.02,58.87,46.9,99.07
		c-1.75,9.9-1.48,15.52,8.93,21.26c31.29,17.22,42.63,56.12,27.52,88.25c-15.47,32.89-52.83,47.85-87.15,34.88
		c-18.74-7.08-33.62,3.09-33.9,23.67c-0.32,23.76,0.27,47.54-0.3,71.3c-0.15,6.37-3.08,12.68-4.73,19.01c-3.4,0-6.79,0-10.19,0
		c-1.34-5.88-4.54-12.05-3.7-17.61c4.99-33.08-5.72-58.59-32.36-79.18c-9.75-7.53-17.88-12.58-30.79-12.93
		c-42.73-1.16-72.9-42.26-63.37-83.83c5.63-24.56,21.59-39.95,43.66-50.23c-9.77-42.89-1.33-79.74,34.21-106.63
		c11.39-8.62,25.76-13.31,38.76-19.8C417.62,119.28,430.08,119.28,442.53,119.28z M430.67,340.11c1.07-0.18,2.15-0.36,3.22-0.54
		c0-12.87,0.07-25.73-0.02-38.6c-0.12-17.47,0.13-34.96-0.94-52.38c-0.23-3.68-5.46-7.05-8.39-10.57c-3.16,3.26-8.98,6.45-9.05,9.78
		c-0.71,30.38-0.42,60.79-0.42,91.19c0.95,0.05,1.91,0.09,2.86,0.14c1.91-5.36,3.81-10.71,6.47-18.18
		C426.97,328.82,428.82,334.46,430.67,340.11z M413.54,407.53c0-19.24,0-37.15,0-55.25c-10.84,8.61-20.81,16.53-29.58,23.5
		C393.21,385.7,402.91,396.12,413.54,407.53z M512.26,304.46c-18.35,18.82-39.09,40.09-56.51,57.95
		C462.56,361.36,509.74,314.62,512.26,304.46z M335.33,337.01c0.98,13.99,27.81,39.71,40.93,38.2
		C362.61,362.48,349.31,350.06,335.33,337.01z"/>
	<rect x="562.14" y="220.82" class="st1" width="529.19" height="225.35"/>
	<text transform="matrix(1 0 0 1.15 562.1357 357.6807)" class="st0 st2 st3 st4">Tree</text>
	<rect x="565.84" y="379.55" class="st1" width="756.16" height="266.45"/>
	<text transform="matrix(1 0 0 1.15 565.8359 427.2363)" class="st0 st2 st5 st6">Photography</text>
</g>
</svg>
